<?xml version="1.0" encoding="utf-8"?>
<!-- Generator: Adobe Illustrator 24.0.1, SVG Export Plug-In . SVG Version: 6.00 Build 0)  -->
<svg version="1.1" id="Capa_1" xmlns="http://www.w3.org/2000/svg" xmlns:xlink="http://www.w3.org/1999/xlink" x="0px" y="0px"
	 viewBox="0 0 444 447" style="enable-background:new 0 0 444 447;" xml:space="preserve">
<style type="text/css">
	.st0{fill:#660000;}
	.st1{fill:#FFFFFF;}
</style>
<circle class="st0" cx="222.64" cy="224.51" r="215.18"/>
<path class="st1" d="M230.7,344.05c-7.2,0-13.19,0.16-19.16-0.04c-8.66-0.29-10.74,4.36-12.09,11.11
	c-1.26,6.28-2.97,12.52-3.56,18.86c-0.63,6.76-1.02,13.75,0.04,20.39c1.06,6.68-0.92,9.91-7.74,9.81
	c-11.66-0.18-23.32-0.09-34.97,0.19c-3.37,0.08-6.71,1.22-10.52,1.97c0-2.08,0-3.45,0-4.87c7.1-1.93,14.55-2.86,20.85-6.05
	c4.5-2.28,9.51-4.59,12.29-10.59c2.2-4.76,2.61-9.08,2.64-13.71c0.07-14.5,0.6-29.07-0.78-43.45c-0.53-5.5,0.45-10.64,0.25-15.95
	c-0.2-5.48-0.22-11.04,0.49-16.46c0.47-3.58,2.02-7.15,3.69-10.41c5.07-9.89,4.02-20.48,3.61-30.91c-0.16-4.23-1.98-8.39-3.09-12.76
	c-4.9-0.55-7.3,1.29-7.63,6.25c-0.35,5.34-4.11,9.3-9.46,9.35c-5.95,0.06-11.03,1.16-15.77,5.5c-2.01,1.85-6.89,1.36-10.23,0.73
	c-3.08-0.58-6.14-2.39-8.71-4.33c-6.49-4.9-13.34-9.59-18.78-15.52c-3.14-3.42-4.62-8.96-5.43-13.78
	c-1.59-9.51-3.08-19.2-2.89-28.78c0.14-6.93-3.18-11.08-7.35-15.11c-3.59-3.47-7.33-6.89-12.52-8.31c-1.93-0.53-4.68-2.6-4.86-4.22
	c-1.05-9.19-6.32-17.81-3.76-27.5c0.66-2.5,7.29-8.61,10.07-9.76c5.05-2.09,10.11-0.87,14.68,0.4c5.16,1.44,6.52,7.06,8.41,11.69
	c2.05,4.99,4.15,9.96,6.53,14.8c1.12,2.28,6.62,2.01,8.84-0.38c3.57-3.84,6.7-8.14,10.56-11.65c2.4-2.18,5.68-3.61,8.8-4.72
	c1.93-0.69,4.31-0.34,6.45-0.13c8.85,0.88,16.96-2.45,25.26-4.51c5.97-1.48,12.45-2.62,17.46-5.85c5.5-3.54,10.94-1.61,16.3-2.65
	c4.53-0.88,8.97-2.22,13.47-3.26c2.81-0.65,5.72-1.76,8.5-1.56c5.68,0.42,8.85-2.53,12.04-6.6c2-2.55,5.07-5.63,7.87-5.85
	c3.33-0.26,7.7,1.48,10.06,3.88c1.6,1.63,0.57,5.9,0.57,8.99c0,0.41-0.82,0.98-1.36,1.19c-7.24,2.83-14.54,5.54-21.74,8.47
	c-1.79,0.73-3.45,1.98-4.91,3.28c-3.49,3.11-6.67,6.58-10.27,9.55c-4.35,3.59-8.94,6.91-13.53,10.19
	c-4.08,2.91-8.32,5.58-12.46,8.41c-3.65,2.49-6.99,5.65-10.96,7.4c-3.78,1.66-3.83,5.32-3.67,7.4c0.19,2.56,1.74,5.77,6.33,5.98
	c5.3,0.25,8.43-2.64,11.99-5.35c5.61-4.27,11.32-8.43,16.77-12.9c3.59-2.94,6.83-6.29,10.18-9.52c7.03-6.78,14.15-13.33,23.64-16.75
	c3.53-1.27,6.94-3.34,9.86-5.71c6.17-5.01,12.15-10.29,17.9-15.78c3.82-3.65,6.84-8.13,10.68-11.75c3.12-2.93,6.61-5.89,10.5-7.48
	c5.81-2.37,12.23-3.23,18.17-5.34c4.01-1.43,7.72-3.78,11.44-5.94c6.28-3.65,12.68-6.88,17.68-12.67c4.36-5.04,10.39-7.8,17.75-7.42
	c4.87,0.25,5.54,4.03,5.6,6.46c0.06,2.54-2.37,5.36-4.22,7.66c-3.14,3.9-6.59,7.59-10.13,11.14c-0.88,0.88-2.7,0.74-3.9,1.4
	c-7.21,3.99-15.11,6.85-20.18,14.09c-2.94,4.2-6.68,7.86-10.19,11.64c-3.8,4.09-7.9,7.9-11.59,12.09c-2.91,3.3-5.49,6.9-8.02,10.5
	c-4.5,6.41-8.7,12.95-15.12,17.84c-2.62,2-3.8,5.79-6.21,8.18c-7.37,7.35-15.05,14.39-22.55,21.61c-1.64,1.58-3.85,3.18-4.42,5.17
	c-1.64,5.69-2.48,11.61-3.81,17.4c-1.41,6.1-3.12,12.13-4.54,18.23c-1.25,5.33-1.94,10.82-3.5,16.05
	c-1.83,6.15-0.86,12.77-4.28,18.77c-1.98,3.47-1.46,8.29-2.42,12.42c-3.44,14.86-3.58,29.95-3.64,45.08
	C231.98,334,231.19,338.69,230.7,344.05z"/>
</svg>
